M48
; DRILL file {KiCad 8.0.5} date 2025-08-09T00:58:06+0700
; FORMAT={-:-/ absolute / inch / decimal}
; #@! TF.CreationDate,2025-08-09T00:58:06+07:00
; #@! TF.GenerationSoftware,Kicad,Pcbnew,8.0.5
; #@! TF.FileFunction,Plated,1,2,PTH
FMAT,2
INCH
; #@! TA.AperFunction,Plated,PTH,ComponentDrill
T1C0.0394
; #@! TA.AperFunction,Plated,PTH,ComponentDrill
T2C0.1260
%
G90
G05
T1
X4.677Y-1.937
X4.737Y-2.2386
X4.737Y-2.337
X4.737Y-2.4354
X4.737Y-2.7902
X4.737Y-2.8886
X4.737Y-2.987
X4.737Y-3.3402
X4.737Y-3.4386
X4.737Y-3.537
X4.777Y-1.937
X4.877Y-1.937
X4.977Y-1.937
X5.037Y-2.2386
X5.037Y-2.337
X5.037Y-2.4354
X5.037Y-2.7886
X5.037Y-2.887
X5.037Y-2.9854
X5.037Y-3.3386
X5.037Y-3.437
X5.037Y-3.5354
X5.037Y-3.837
X5.077Y-1.937
X5.137Y-3.837
X5.1417Y-1.637
X5.177Y-1.937
X5.237Y-3.837
X5.2386Y-4.137
X5.2402Y-1.637
X5.277Y-1.937
X5.337Y-2.2402
X5.337Y-2.3386
X5.337Y-2.437
X5.337Y-2.7886
X5.337Y-2.887
X5.337Y-2.9854
X5.337Y-3.3386
X5.337Y-3.437
X5.337Y-3.5354
X5.337Y-3.837
X5.337Y-4.137
X5.3386Y-1.637
X5.377Y-1.937
X5.437Y-1.637
X5.437Y-3.837
X5.477Y-1.937
X5.537Y-3.837
X5.577Y-1.937
X5.637Y-2.2386
X5.637Y-2.337
X5.637Y-2.4354
X5.637Y-2.7886
X5.637Y-2.887
X5.637Y-2.9854
X5.637Y-3.3386
X5.637Y-3.437
X5.637Y-3.5354
X5.637Y-3.837
X5.698Y-4.137
X5.737Y-1.937
X5.737Y-3.837
X5.7417Y-1.637
X5.7965Y-4.137
X5.837Y-1.937
X5.8402Y-1.637
X5.8949Y-4.137
X5.937Y-1.937
X5.937Y-2.2386
X5.937Y-2.337
X5.937Y-2.4354
X5.937Y-2.7886
X5.937Y-2.887
X5.937Y-2.9854
X5.937Y-3.3386
X5.937Y-3.437
X5.937Y-3.5354
X5.937Y-3.837
X5.9386Y-1.637
X5.9933Y-4.137
X6.037Y-1.637
X6.037Y-1.937
X6.037Y-3.837
X6.0917Y-4.137
X6.137Y-1.937
X6.137Y-3.837
X6.1902Y-4.137
X6.237Y-1.937
X6.237Y-2.2386
X6.237Y-2.337
X6.237Y-2.4354
X6.237Y-2.7886
X6.237Y-2.887
X6.237Y-2.9854
X6.237Y-3.3386
X6.237Y-3.437
X6.237Y-3.5354
X6.237Y-3.837
X6.2886Y-4.137
X6.337Y-1.937
X6.337Y-3.837
X6.3417Y-1.637
X6.387Y-4.137
X6.437Y-1.937
X6.437Y-2.737
X6.437Y-2.837
X6.437Y-2.937
X6.437Y-3.837
X6.4402Y-1.637
X6.537Y-2.737
X6.537Y-2.837
X6.537Y-2.937
X6.537Y-3.837
X6.5386Y-1.637
X6.637Y-1.637
X6.637Y-1.937
X6.637Y-3.837
X6.737Y-1.937
X6.7465Y-4.137
X6.837Y-1.937
X6.837Y-2.6417
X6.837Y-2.7402
X6.837Y-2.8386
X6.837Y-2.937
X6.837Y-3.0354
X6.837Y-3.1339
X6.837Y-3.837
X6.8449Y-4.137
X6.937Y-1.937
X6.937Y-3.837
X6.9417Y-1.637
X6.9433Y-4.137
X7.037Y-1.937
X7.037Y-3.837
X7.0394Y-3.4327
X7.0402Y-1.637
X7.0417Y-4.137
X7.137Y-1.937
X7.137Y-3.837
X7.1378Y-3.4327
X7.1386Y-1.637
X7.1402Y-4.137
X7.2362Y-3.4327
X7.237Y-1.637
X7.237Y-1.937
X7.237Y-2.1878
X7.237Y-2.487
X7.237Y-3.837
X7.2386Y-4.137
X7.3346Y-3.4327
X7.337Y-1.937
X7.337Y-3.837
X7.337Y-4.137
X7.4354Y-4.137
X7.437Y-3.837
X7.5339Y-4.137
X7.537Y-3.837
X7.6323Y-4.137
X7.637Y-1.937
X7.637Y-2.037
X7.637Y-2.137
X7.637Y-2.237
X7.637Y-2.337
X7.637Y-2.437
X7.637Y-2.537
X7.637Y-2.637
X7.637Y-2.737
X7.637Y-2.837
X7.637Y-2.937
X7.637Y-3.037
X7.637Y-3.137
X7.637Y-3.237
X7.637Y-3.337
X7.637Y-3.437
X7.637Y-3.537
X7.637Y-3.637
X7.737Y-1.937
X7.737Y-2.037
X7.737Y-2.137
X7.737Y-2.237
X7.737Y-2.337
X7.737Y-2.437
X7.737Y-2.537
X7.737Y-2.637
X7.737Y-2.737
X7.737Y-2.837
X7.737Y-2.937
X7.737Y-3.037
X7.737Y-3.137
X7.737Y-3.237
X7.737Y-3.337
X7.737Y-3.437
X7.737Y-3.537
X7.737Y-3.637
X7.937Y-2.037
X7.937Y-2.137
X7.937Y-2.237
X7.937Y-2.337
X7.937Y-2.437
X7.937Y-2.537
X7.937Y-2.637
X7.937Y-2.737
X7.937Y-2.837
X7.937Y-2.937
X7.937Y-3.037
X7.937Y-3.137
X7.937Y-3.237
X7.937Y-3.337
X7.937Y-3.437
X7.937Y-3.537
X8.037Y-2.037
X8.037Y-2.137
X8.037Y-2.237
X8.037Y-2.337
X8.037Y-2.437
X8.037Y-2.537
X8.037Y-2.637
X8.037Y-2.737
X8.037Y-2.837
X8.037Y-2.937
X8.037Y-3.037
X8.037Y-3.137
X8.037Y-3.237
X8.037Y-3.337
X8.037Y-3.437
X8.037Y-3.537
T2
X4.6874Y-4.137
X4.689Y-1.637
X7.987Y-1.637
X7.987Y-4.137
M30
