%TF.GenerationSoftware,KiCad,Pcbnew,8.0.5*%
%TF.CreationDate,2025-08-09T00:58:03+07:00*%
%TF.ProjectId,arduino_dummy_shield,61726475-696e-46f5-9f64-756d6d795f73,rev?*%
%TF.SameCoordinates,Original*%
%TF.FileFunction,Legend,Bot*%
%TF.FilePolarity,Positive*%
%FSLAX46Y46*%
G04 Gerber Fmt 4.6, Leading zero omitted, Abs format (unit mm)*
G04 Created by KiCad (PCBNEW 8.0.5) date 2025-08-09 00:58:03*
%MOMM*%
%LPD*%
G01*
G04 APERTURE LIST*
%ADD10C,0.000000*%
%ADD11C,0.120000*%
G04 APERTURE END LIST*
D10*
%TO.C,G\u002A\u002A\u002A*%
G36*
X185942470Y-71486409D02*
G01*
X185896615Y-71622436D01*
X185853495Y-71750873D01*
X185813473Y-71870632D01*
X185776907Y-71980624D01*
X185744158Y-72079759D01*
X185715587Y-72166947D01*
X185691554Y-72241101D01*
X185672420Y-72301130D01*
X185658544Y-72345946D01*
X185650288Y-72374458D01*
X185648011Y-72385579D01*
X185648123Y-72385714D01*
X185659283Y-72390575D01*
X185687874Y-72401204D01*
X185732868Y-72417252D01*
X185793235Y-72438369D01*
X185867948Y-72464205D01*
X185955978Y-72494409D01*
X186056297Y-72528632D01*
X186073806Y-72534578D01*
X186167876Y-72566524D01*
X186289686Y-72607734D01*
X186420700Y-72651912D01*
X186559890Y-72698709D01*
X186706225Y-72747773D01*
X186858679Y-72798756D01*
X187016223Y-72851307D01*
X187030818Y-72856170D01*
X187187821Y-72908514D01*
X187339586Y-72959175D01*
X187485088Y-73007810D01*
X187623304Y-73054073D01*
X187753210Y-73097620D01*
X187873785Y-73138106D01*
X187984004Y-73175187D01*
X188082844Y-73208519D01*
X188169283Y-73237755D01*
X188242296Y-73262553D01*
X188300861Y-73282567D01*
X188343954Y-73297453D01*
X188370552Y-73306866D01*
X188378372Y-73309962D01*
X188379632Y-73310461D01*
X188378760Y-73310986D01*
X188364288Y-73316540D01*
X188333095Y-73327607D01*
X188286581Y-73343713D01*
X188226146Y-73364385D01*
X188153190Y-73389148D01*
X188069115Y-73417527D01*
X187975320Y-73449048D01*
X187873205Y-73483237D01*
X187764171Y-73519620D01*
X187649619Y-73557722D01*
X187648658Y-73558041D01*
X187545228Y-73592422D01*
X187433957Y-73629469D01*
X187316232Y-73668716D01*
X187193443Y-73709696D01*
X187066977Y-73751944D01*
X186938223Y-73794994D01*
X186808569Y-73838381D01*
X186679402Y-73881638D01*
X186552111Y-73924300D01*
X186428085Y-73965901D01*
X186308710Y-74005975D01*
X186195376Y-74044057D01*
X186101182Y-74075740D01*
X186089471Y-74079679D01*
X185992382Y-74112378D01*
X185905498Y-74141687D01*
X185830207Y-74167140D01*
X185767898Y-74188271D01*
X185719957Y-74204614D01*
X185687774Y-74215705D01*
X185672737Y-74221076D01*
X185671151Y-74222351D01*
X185669751Y-74227909D01*
X185670536Y-74238692D01*
X185673873Y-74255908D01*
X185680131Y-74280765D01*
X185689678Y-74314472D01*
X185702883Y-74358237D01*
X185720113Y-74413269D01*
X185741737Y-74480776D01*
X185768123Y-74561966D01*
X185799639Y-74658048D01*
X185836654Y-74770231D01*
X185879535Y-74899721D01*
X185911322Y-74995560D01*
X185946481Y-75101489D01*
X185979509Y-75200918D01*
X185994158Y-75244980D01*
X186009904Y-75292341D01*
X186037165Y-75374252D01*
X186060791Y-75445145D01*
X186080279Y-75503515D01*
X186095129Y-75547855D01*
X186104838Y-75576660D01*
X186108906Y-75588423D01*
X186109873Y-75591709D01*
X186109172Y-75594111D01*
X186105662Y-75595237D01*
X186098220Y-75594736D01*
X186085722Y-75592260D01*
X186067045Y-75587460D01*
X186041065Y-75579985D01*
X186006659Y-75569486D01*
X185962702Y-75555613D01*
X185908071Y-75538018D01*
X185841644Y-75516350D01*
X185762295Y-75490261D01*
X185668902Y-75459400D01*
X185560340Y-75423417D01*
X185435487Y-75381965D01*
X185293219Y-75334692D01*
X185289352Y-75333407D01*
X185189209Y-75300281D01*
X185094663Y-75269283D01*
X185007327Y-75240925D01*
X184928819Y-75215720D01*
X184860753Y-75194178D01*
X184804746Y-75176810D01*
X184762413Y-75164129D01*
X184735371Y-75156647D01*
X184725234Y-75154873D01*
X184724543Y-75156174D01*
X184720735Y-75165865D01*
X184713701Y-75185310D01*
X184703266Y-75215024D01*
X184689255Y-75255524D01*
X184671494Y-75307326D01*
X184649808Y-75370948D01*
X184624025Y-75446904D01*
X184593968Y-75535711D01*
X184559464Y-75637887D01*
X184520339Y-75753947D01*
X184476419Y-75884408D01*
X184427528Y-76029785D01*
X184373493Y-76190597D01*
X184314140Y-76367358D01*
X184249293Y-76560586D01*
X184178780Y-76770797D01*
X184102425Y-76998506D01*
X184020054Y-77244232D01*
X184002740Y-77295861D01*
X183968332Y-77398289D01*
X183936005Y-77494291D01*
X183906274Y-77582356D01*
X183879651Y-77660969D01*
X183856652Y-77728617D01*
X183837790Y-77783787D01*
X183823578Y-77824966D01*
X183814532Y-77850640D01*
X183811164Y-77859297D01*
X183811161Y-77859293D01*
X183807811Y-77849755D01*
X183798614Y-77822729D01*
X183783917Y-77779246D01*
X183764065Y-77720337D01*
X183739404Y-77647031D01*
X183710280Y-77560360D01*
X183677038Y-77461353D01*
X183640026Y-77351042D01*
X183599588Y-77230457D01*
X183556070Y-77100628D01*
X183509819Y-76962586D01*
X183461180Y-76817362D01*
X183410499Y-76665986D01*
X183358122Y-76509488D01*
X183357890Y-76508797D01*
X183305464Y-76352208D01*
X183254679Y-76200683D01*
X183205885Y-76055258D01*
X183159432Y-75916970D01*
X183115669Y-75786854D01*
X183074947Y-75665946D01*
X183037615Y-75555283D01*
X183004024Y-75455900D01*
X182974522Y-75368834D01*
X182949460Y-75295119D01*
X182929188Y-75235793D01*
X182914055Y-75191892D01*
X182904411Y-75164451D01*
X182900607Y-75154506D01*
X182900603Y-75154503D01*
X182890459Y-75156366D01*
X182863257Y-75163993D01*
X182820455Y-75176917D01*
X182763508Y-75194672D01*
X182693873Y-75216793D01*
X182613008Y-75242813D01*
X182522368Y-75272268D01*
X182423410Y-75304689D01*
X182317591Y-75339613D01*
X182206368Y-75376572D01*
X182205749Y-75376778D01*
X182094619Y-75413768D01*
X181988972Y-75448812D01*
X181890259Y-75481437D01*
X181799927Y-75511170D01*
X181719427Y-75537539D01*
X181650208Y-75560068D01*
X181593719Y-75578286D01*
X181551409Y-75591718D01*
X181524728Y-75599891D01*
X181515124Y-75602333D01*
X181515057Y-75601846D01*
X181518263Y-75588907D01*
X181526929Y-75560292D01*
X181540293Y-75518363D01*
X181557594Y-75465481D01*
X181578070Y-75404008D01*
X181600958Y-75336306D01*
X181610618Y-75307897D01*
X181631360Y-75246739D01*
X181634306Y-75238034D01*
X181875789Y-75238034D01*
X181885136Y-75243998D01*
X181886130Y-75243822D01*
X181901484Y-75239386D01*
X181933151Y-75229433D01*
X181979314Y-75214557D01*
X182038160Y-75195353D01*
X182107875Y-75172415D01*
X182186644Y-75146337D01*
X182272652Y-75117713D01*
X182364085Y-75087139D01*
X182405231Y-75073348D01*
X183117861Y-75073348D01*
X183117971Y-75073845D01*
X183122158Y-75087044D01*
X183132090Y-75117315D01*
X183147373Y-75163479D01*
X183167615Y-75224356D01*
X183192419Y-75298769D01*
X183221394Y-75385539D01*
X183254145Y-75483486D01*
X183290278Y-75591432D01*
X183329399Y-75708199D01*
X183371115Y-75832607D01*
X183415031Y-75963478D01*
X183460755Y-76099634D01*
X183470590Y-76128910D01*
X183516093Y-76264366D01*
X183559793Y-76394466D01*
X183601290Y-76518016D01*
X183640181Y-76633816D01*
X183676064Y-76740671D01*
X183708538Y-76837383D01*
X183737200Y-76922756D01*
X183761649Y-76995592D01*
X183781483Y-77054696D01*
X183796300Y-77098869D01*
X183805697Y-77126914D01*
X183809274Y-77137636D01*
X183809964Y-77137465D01*
X183815801Y-77125150D01*
X183826850Y-77096830D01*
X183842438Y-77054388D01*
X183861892Y-76999706D01*
X183884538Y-76934669D01*
X183909705Y-76861159D01*
X183936717Y-76781059D01*
X183942183Y-76764740D01*
X183968567Y-76686044D01*
X184000050Y-76592256D01*
X184035702Y-76486134D01*
X184074598Y-76370436D01*
X184115808Y-76247922D01*
X184158404Y-76121349D01*
X184201460Y-75993476D01*
X184244047Y-75867062D01*
X184285237Y-75744865D01*
X184311019Y-75668269D01*
X184357416Y-75529606D01*
X184397254Y-75409331D01*
X184430538Y-75307431D01*
X184457269Y-75223897D01*
X184477452Y-75158718D01*
X184491091Y-75111884D01*
X184498187Y-75083383D01*
X184498746Y-75073204D01*
X184487608Y-75069379D01*
X184459972Y-75060060D01*
X184418053Y-75045991D01*
X184364006Y-75027893D01*
X184299985Y-75006489D01*
X184228143Y-74982498D01*
X184150635Y-74956642D01*
X184039257Y-74919507D01*
X184800938Y-74919507D01*
X184803751Y-74922666D01*
X184820957Y-74931529D01*
X184854187Y-74945211D01*
X184903881Y-74963872D01*
X184970479Y-74987669D01*
X185054423Y-75016764D01*
X185156151Y-75051315D01*
X185221519Y-75073204D01*
X185276104Y-75091482D01*
X185307140Y-75101807D01*
X185397365Y-75131694D01*
X185481170Y-75159270D01*
X185556826Y-75183977D01*
X185622605Y-75205259D01*
X185676776Y-75222557D01*
X185717611Y-75235315D01*
X185743380Y-75242975D01*
X185752354Y-75244980D01*
X185752127Y-75244023D01*
X185747544Y-75229299D01*
X185737510Y-75198289D01*
X185722606Y-75152760D01*
X185703415Y-75094476D01*
X185680520Y-75025203D01*
X185654502Y-74946706D01*
X185625944Y-74860751D01*
X185595428Y-74769104D01*
X185438501Y-74298322D01*
X185199009Y-74379587D01*
X185141240Y-74399362D01*
X185081556Y-74420188D01*
X185030216Y-74438527D01*
X184989767Y-74453453D01*
X184962757Y-74464042D01*
X184951732Y-74469368D01*
X184949889Y-74472847D01*
X184942245Y-74492164D01*
X184930219Y-74525300D01*
X184916345Y-74564883D01*
X184914877Y-74569070D01*
X184897289Y-74620284D01*
X184878521Y-74675756D01*
X184859641Y-74732299D01*
X184841717Y-74786724D01*
X184825817Y-74835845D01*
X184813009Y-74876474D01*
X184804360Y-74905424D01*
X184800938Y-74919507D01*
X184039257Y-74919507D01*
X183814032Y-74844414D01*
X183550552Y-74931051D01*
X183466789Y-74958594D01*
X183458473Y-74961329D01*
X183380708Y-74986900D01*
X183309238Y-75010402D01*
X183246107Y-75031163D01*
X183193360Y-75048510D01*
X183153040Y-75061772D01*
X183127192Y-75070275D01*
X183117861Y-75073348D01*
X182405231Y-75073348D01*
X182829777Y-74931051D01*
X182751962Y-74699583D01*
X182706419Y-74564110D01*
X182951911Y-74564110D01*
X182952173Y-74567170D01*
X182956958Y-74585399D01*
X182966519Y-74617145D01*
X182979859Y-74659145D01*
X182995979Y-74708136D01*
X182998174Y-74714675D01*
X183018092Y-74771162D01*
X183034992Y-74813798D01*
X183048164Y-74840916D01*
X183056897Y-74850851D01*
X183063766Y-74849965D01*
X183086774Y-74844044D01*
X183121846Y-74833613D01*
X183165568Y-74819823D01*
X183214531Y-74803825D01*
X183265321Y-74786771D01*
X183314527Y-74769810D01*
X183358738Y-74754094D01*
X183394541Y-74740774D01*
X183418524Y-74730999D01*
X183425870Y-74726738D01*
X184189277Y-74726738D01*
X184190196Y-74727573D01*
X184204352Y-74733846D01*
X184233504Y-74744889D01*
X184274936Y-74759721D01*
X184325930Y-74777364D01*
X184383770Y-74796839D01*
X184578262Y-74861492D01*
X184593292Y-74821111D01*
X184604778Y-74789795D01*
X184623654Y-74736442D01*
X184641070Y-74685070D01*
X184655977Y-74638953D01*
X184667330Y-74601366D01*
X184674082Y-74575584D01*
X184675186Y-74564883D01*
X184672879Y-74564841D01*
X184655693Y-74568914D01*
X184624379Y-74578006D01*
X184581912Y-74591125D01*
X184531273Y-74607279D01*
X184475438Y-74625476D01*
X184417386Y-74644724D01*
X184360094Y-74664031D01*
X184306542Y-74682406D01*
X184259705Y-74698856D01*
X184222564Y-74712389D01*
X184198095Y-74722014D01*
X184190800Y-74725922D01*
X184189277Y-74726738D01*
X183425870Y-74726738D01*
X183427277Y-74725922D01*
X183426317Y-74725070D01*
X183412147Y-74718807D01*
X183383371Y-74707842D01*
X183342987Y-74693196D01*
X183293994Y-74675888D01*
X183239389Y-74656941D01*
X183182172Y-74637373D01*
X183125341Y-74618206D01*
X183071893Y-74600461D01*
X183024828Y-74585159D01*
X182987144Y-74573319D01*
X182961839Y-74565962D01*
X182951911Y-74564110D01*
X182706419Y-74564110D01*
X182674147Y-74468115D01*
X182434542Y-74386273D01*
X182378282Y-74367357D01*
X182317688Y-74347730D01*
X182265860Y-74331766D01*
X182225210Y-74320181D01*
X182198151Y-74313689D01*
X182187098Y-74313004D01*
X182186973Y-74313169D01*
X182182018Y-74325107D01*
X182171620Y-74353645D01*
X182156405Y-74396953D01*
X182137002Y-74453199D01*
X182114038Y-74520554D01*
X182088141Y-74597186D01*
X182059939Y-74681265D01*
X182030059Y-74770961D01*
X182028097Y-74776870D01*
X181998366Y-74866391D01*
X181970480Y-74950306D01*
X181945054Y-75026766D01*
X181922704Y-75093923D01*
X181904045Y-75149929D01*
X181889693Y-75192936D01*
X181880263Y-75221095D01*
X181876370Y-75232557D01*
X181875789Y-75238034D01*
X181634306Y-75238034D01*
X181655511Y-75175368D01*
X181682383Y-75095836D01*
X181711284Y-75010195D01*
X181741525Y-74920496D01*
X181772416Y-74828791D01*
X181803265Y-74737132D01*
X181833384Y-74647570D01*
X181862083Y-74562157D01*
X181888670Y-74482945D01*
X181912455Y-74411986D01*
X181932750Y-74351331D01*
X181948863Y-74303032D01*
X181960104Y-74269141D01*
X181965784Y-74251709D01*
X181966830Y-74247271D01*
X181965782Y-74240471D01*
X181959337Y-74233571D01*
X181945300Y-74225574D01*
X181921474Y-74215488D01*
X181885663Y-74202318D01*
X181835672Y-74185069D01*
X181769304Y-74162747D01*
X181765902Y-74161609D01*
X181648538Y-74122303D01*
X181523614Y-74080399D01*
X181518734Y-74078760D01*
X182257615Y-74078760D01*
X182258402Y-74081016D01*
X182272806Y-74090186D01*
X182303681Y-74103743D01*
X182349362Y-74120997D01*
X182408184Y-74141255D01*
X182445133Y-74153540D01*
X182493862Y-74169791D01*
X182534295Y-74183333D01*
X182563016Y-74193021D01*
X182576608Y-74197710D01*
X182584410Y-74198714D01*
X182585501Y-74188946D01*
X182585373Y-74188588D01*
X182580555Y-74174622D01*
X182570388Y-74144881D01*
X182555733Y-74101889D01*
X182537449Y-74048174D01*
X182516398Y-73986261D01*
X182493440Y-73918676D01*
X182490789Y-73910877D01*
X182468129Y-73844753D01*
X182447454Y-73785380D01*
X182429609Y-73735111D01*
X182415440Y-73696302D01*
X182405791Y-73671309D01*
X182401508Y-73662485D01*
X182400335Y-73664157D01*
X182393655Y-73680146D01*
X182382239Y-73710900D01*
X182367038Y-73753755D01*
X182349005Y-73806049D01*
X182329092Y-73865117D01*
X182320984Y-73889420D01*
X182301683Y-73947237D01*
X182284740Y-73997934D01*
X182271111Y-74038655D01*
X182261751Y-74066549D01*
X182257615Y-74078760D01*
X181518734Y-74078760D01*
X181392314Y-74036296D01*
X181255825Y-73990398D01*
X181115331Y-73943104D01*
X180972018Y-73894817D01*
X180827071Y-73845938D01*
X180681676Y-73796867D01*
X180537019Y-73748008D01*
X180394284Y-73699759D01*
X180254657Y-73652524D01*
X180119323Y-73606704D01*
X179989468Y-73562699D01*
X179866278Y-73520911D01*
X179750937Y-73481742D01*
X179644631Y-73445593D01*
X179548546Y-73412865D01*
X179463866Y-73383959D01*
X179391778Y-73359278D01*
X179333467Y-73339221D01*
X179290118Y-73324191D01*
X179262916Y-73314589D01*
X179261472Y-73314037D01*
X179959200Y-73314037D01*
X179959425Y-73314127D01*
X179972482Y-73318734D01*
X180002090Y-73328873D01*
X180046393Y-73343917D01*
X180103530Y-73363239D01*
X180171642Y-73386210D01*
X180248870Y-73412202D01*
X180333355Y-73440589D01*
X180423239Y-73470741D01*
X180457450Y-73482213D01*
X180560601Y-73516845D01*
X180677200Y-73556042D01*
X180803564Y-73598565D01*
X180936008Y-73643172D01*
X181070848Y-73688621D01*
X181204398Y-73733671D01*
X181332974Y-73777081D01*
X181452891Y-73817610D01*
X181473067Y-73824433D01*
X181573976Y-73858531D01*
X181669002Y-73890603D01*
X181756566Y-73920119D01*
X181835091Y-73946549D01*
X181903000Y-73969362D01*
X181958714Y-73988028D01*
X182000655Y-74002018D01*
X182027247Y-74010800D01*
X182036910Y-74013846D01*
X182036975Y-74013848D01*
X182037821Y-74014411D01*
X182038534Y-74014811D01*
X182039699Y-74013380D01*
X182041900Y-74008453D01*
X182045723Y-73998362D01*
X182051753Y-73981442D01*
X182060574Y-73956026D01*
X182072771Y-73920448D01*
X182088930Y-73873042D01*
X182109635Y-73812140D01*
X182135472Y-73736076D01*
X182167025Y-73643185D01*
X182284302Y-73297989D01*
X182525979Y-73297989D01*
X182691449Y-73794399D01*
X182822964Y-74188946D01*
X182856919Y-74290810D01*
X183315502Y-74444085D01*
X183328091Y-74448292D01*
X183418506Y-74478499D01*
X183503443Y-74506856D01*
X183581038Y-74532743D01*
X183649427Y-74555537D01*
X183706744Y-74574618D01*
X183751126Y-74589365D01*
X183780707Y-74599156D01*
X183793623Y-74603371D01*
X183795511Y-74603445D01*
X183813152Y-74599849D01*
X183846458Y-74590829D01*
X183893285Y-74577090D01*
X183951489Y-74559336D01*
X184018925Y-74538270D01*
X184093448Y-74514598D01*
X184172915Y-74489022D01*
X184255181Y-74462248D01*
X184338102Y-74434979D01*
X184419533Y-74407920D01*
X184497330Y-74381774D01*
X184569349Y-74357246D01*
X184633445Y-74335040D01*
X184687474Y-74315860D01*
X184729291Y-74300410D01*
X184756753Y-74289394D01*
X184767715Y-74283516D01*
X184771069Y-74275208D01*
X184780174Y-74249828D01*
X184794232Y-74209396D01*
X184801268Y-74188866D01*
X185053210Y-74188866D01*
X185059146Y-74187939D01*
X185083224Y-74181620D01*
X185118301Y-74170602D01*
X185160684Y-74156241D01*
X185206681Y-74139891D01*
X185252597Y-74122908D01*
X185294739Y-74106647D01*
X185329413Y-74092461D01*
X185352926Y-74081708D01*
X185361585Y-74075740D01*
X185361498Y-74074954D01*
X185357516Y-74060404D01*
X185348414Y-74031427D01*
X185335319Y-73991320D01*
X185319354Y-73943382D01*
X185301644Y-73890911D01*
X185283314Y-73837204D01*
X185265488Y-73785559D01*
X185249291Y-73739276D01*
X185235847Y-73701651D01*
X185226281Y-73675982D01*
X185221718Y-73665569D01*
X185221405Y-73665762D01*
X185216421Y-73677236D01*
X185206302Y-73704516D01*
X185191850Y-73745311D01*
X185173868Y-73797332D01*
X185153158Y-73858290D01*
X185130521Y-73925894D01*
X185125712Y-73940403D01*
X185104079Y-74006889D01*
X185085362Y-74066422D01*
X185070238Y-74116694D01*
X185059385Y-74155397D01*
X185053484Y-74180224D01*
X185053210Y-74188866D01*
X184801268Y-74188866D01*
X184812597Y-74155809D01*
X184834622Y-74090962D01*
X184859661Y-74016752D01*
X184887069Y-73935073D01*
X184916199Y-73847822D01*
X184938421Y-73781154D01*
X184967435Y-73694290D01*
X184994720Y-73612799D01*
X185019537Y-73538877D01*
X185041147Y-73474719D01*
X185058814Y-73422519D01*
X185071797Y-73384471D01*
X185079361Y-73362772D01*
X185100976Y-73302736D01*
X185100445Y-73301174D01*
X185337208Y-73301174D01*
X185337737Y-73302736D01*
X185392519Y-73464567D01*
X185409150Y-73513687D01*
X185434274Y-73587877D01*
X185461540Y-73668376D01*
X185488628Y-73748334D01*
X185513219Y-73820904D01*
X185519325Y-73838839D01*
X185538671Y-73894538D01*
X185555910Y-73942523D01*
X185570031Y-73980086D01*
X185580026Y-74004517D01*
X185584884Y-74013110D01*
X185587113Y-74012577D01*
X185604037Y-74007237D01*
X185633001Y-73997460D01*
X185669316Y-73984821D01*
X185673996Y-73983180D01*
X185703363Y-73973047D01*
X185749108Y-73957408D01*
X185809526Y-73936840D01*
X185882913Y-73911919D01*
X185967565Y-73883218D01*
X186061775Y-73851315D01*
X186163841Y-73816784D01*
X186272056Y-73780201D01*
X186384717Y-73742141D01*
X186500119Y-73703180D01*
X186616556Y-73663892D01*
X186732325Y-73624854D01*
X186845720Y-73586640D01*
X186955037Y-73549827D01*
X187058572Y-73514989D01*
X187154619Y-73482702D01*
X187241473Y-73453542D01*
X187317431Y-73428083D01*
X187380788Y-73406901D01*
X187429838Y-73390572D01*
X187476797Y-73374879D01*
X187534848Y-73355133D01*
X187584413Y-73337874D01*
X187622969Y-73323996D01*
X187647997Y-73314393D01*
X187656972Y-73309962D01*
X187656326Y-73309548D01*
X187642544Y-73304216D01*
X187611714Y-73293212D01*
X187565012Y-73276936D01*
X187503613Y-73255787D01*
X187428690Y-73230163D01*
X187341419Y-73200465D01*
X187242974Y-73167090D01*
X187134530Y-73130439D01*
X187017262Y-73090910D01*
X186892344Y-73048903D01*
X186760951Y-73004817D01*
X186624258Y-72959050D01*
X186588998Y-72947257D01*
X186453247Y-72901852D01*
X186322916Y-72858258D01*
X186199199Y-72816873D01*
X186083285Y-72778097D01*
X185976368Y-72742328D01*
X185879638Y-72709964D01*
X185794287Y-72681405D01*
X185721508Y-72657049D01*
X185662491Y-72637295D01*
X185618429Y-72622542D01*
X185590513Y-72613188D01*
X185579935Y-72609632D01*
X185577809Y-72611090D01*
X185569154Y-72627494D01*
X185555214Y-72661309D01*
X185536306Y-72711675D01*
X185512749Y-72777730D01*
X185484860Y-72858611D01*
X185452958Y-72953458D01*
X185337208Y-73301174D01*
X185100445Y-73301174D01*
X184937096Y-72820390D01*
X184806396Y-72435702D01*
X185048970Y-72435702D01*
X185051913Y-72445251D01*
X185060292Y-72470899D01*
X185073295Y-72510203D01*
X185090114Y-72560724D01*
X185109939Y-72620022D01*
X185131960Y-72685659D01*
X185153916Y-72750813D01*
X185174012Y-72810099D01*
X185191247Y-72860586D01*
X185204786Y-72899840D01*
X185213795Y-72925430D01*
X185217441Y-72934923D01*
X185218230Y-72933742D01*
X185224116Y-72918914D01*
X185234853Y-72889229D01*
X185249515Y-72847321D01*
X185267176Y-72795822D01*
X185286910Y-72737366D01*
X185294810Y-72713700D01*
X185313410Y-72657177D01*
X185329120Y-72608287D01*
X185341091Y-72569746D01*
X185348471Y-72544271D01*
X185350410Y-72534578D01*
X185343654Y-72531669D01*
X185321736Y-72523773D01*
X185288377Y-72512320D01*
X185247321Y-72498538D01*
X185202311Y-72483655D01*
X185157091Y-72468899D01*
X185115403Y-72455498D01*
X185080991Y-72444679D01*
X185057599Y-72437671D01*
X185048970Y-72435702D01*
X184806396Y-72435702D01*
X184773216Y-72338043D01*
X184299919Y-72178062D01*
X183826622Y-72018081D01*
X183775930Y-72029956D01*
X183759145Y-72034663D01*
X183724784Y-72045270D01*
X183675890Y-72060882D01*
X183614547Y-72080815D01*
X183542841Y-72104388D01*
X183462856Y-72130919D01*
X183376676Y-72159726D01*
X183286387Y-72190127D01*
X182847534Y-72338423D01*
X182813160Y-72441000D01*
X182686756Y-72818206D01*
X182526328Y-73296947D01*
X182525979Y-73297989D01*
X182284302Y-73297989D01*
X182284656Y-73296947D01*
X182170783Y-72954454D01*
X182169257Y-72949863D01*
X182143492Y-72872437D01*
X182119753Y-72801209D01*
X182098727Y-72738237D01*
X182081102Y-72685578D01*
X182067569Y-72645289D01*
X182058814Y-72619429D01*
X182055527Y-72610055D01*
X182054045Y-72610424D01*
X182037842Y-72615493D01*
X182004718Y-72626188D01*
X181955841Y-72642125D01*
X181892375Y-72662920D01*
X181815486Y-72688188D01*
X181726341Y-72717545D01*
X181626103Y-72750608D01*
X181515940Y-72786992D01*
X181397017Y-72826313D01*
X181270500Y-72868187D01*
X181137554Y-72912230D01*
X180999345Y-72958058D01*
X180942586Y-72976902D01*
X180806794Y-73022117D01*
X180676980Y-73065524D01*
X180554287Y-73106731D01*
X180439858Y-73145347D01*
X180334839Y-73180981D01*
X180240371Y-73213242D01*
X180157599Y-73241737D01*
X180087666Y-73266075D01*
X180031716Y-73285866D01*
X179990893Y-73300718D01*
X179966340Y-73310238D01*
X179959200Y-73314037D01*
X179261472Y-73314037D01*
X179253047Y-73310816D01*
X179253037Y-73310728D01*
X179262740Y-73306413D01*
X179289887Y-73296327D01*
X179333463Y-73280816D01*
X179392449Y-73260225D01*
X179465828Y-73234899D01*
X179552583Y-73205186D01*
X179651697Y-73171430D01*
X179762152Y-73133978D01*
X179882931Y-73093174D01*
X180013018Y-73049365D01*
X180151393Y-73002896D01*
X180297042Y-72954114D01*
X180448945Y-72903363D01*
X180606086Y-72850990D01*
X180616854Y-72847405D01*
X180773959Y-72795079D01*
X180925942Y-72744412D01*
X181071769Y-72695750D01*
X181210409Y-72649439D01*
X181340828Y-72605826D01*
X181461996Y-72565258D01*
X181538470Y-72539617D01*
X182280823Y-72539617D01*
X182282876Y-72554598D01*
X182290414Y-72584453D01*
X182302613Y-72626321D01*
X182318648Y-72677336D01*
X182337695Y-72734636D01*
X182346759Y-72761178D01*
X182368855Y-72825281D01*
X182385651Y-72872834D01*
X182397720Y-72905336D01*
X182405633Y-72924285D01*
X182409961Y-72931179D01*
X182411277Y-72927518D01*
X182413842Y-72918750D01*
X182421981Y-72893738D01*
X182434879Y-72855029D01*
X182451701Y-72805118D01*
X182471609Y-72746497D01*
X182493768Y-72681659D01*
X182514265Y-72621225D01*
X182533623Y-72562790D01*
X182549585Y-72513133D01*
X182561391Y-72474671D01*
X182568280Y-72449820D01*
X182569491Y-72441000D01*
X182568652Y-72441070D01*
X182553540Y-72444933D01*
X182524830Y-72453716D01*
X182486549Y-72466057D01*
X182442720Y-72480595D01*
X182397368Y-72495968D01*
X182354519Y-72510812D01*
X182318198Y-72523766D01*
X182292428Y-72533468D01*
X182281236Y-72538556D01*
X182280823Y-72539617D01*
X181538470Y-72539617D01*
X181572879Y-72528080D01*
X181672446Y-72494639D01*
X181759665Y-72465281D01*
X181833502Y-72440353D01*
X181892927Y-72420201D01*
X181936907Y-72405171D01*
X181964409Y-72395610D01*
X181974403Y-72391864D01*
X181972742Y-72382386D01*
X181965295Y-72355802D01*
X181952493Y-72313592D01*
X181934806Y-72257215D01*
X181912704Y-72188131D01*
X181886657Y-72107798D01*
X181857136Y-72017676D01*
X181824612Y-71919225D01*
X181789554Y-71813903D01*
X181752432Y-71703170D01*
X181716254Y-71595472D01*
X181680968Y-71490122D01*
X181648096Y-71391671D01*
X181643739Y-71378575D01*
X181888266Y-71378575D01*
X181888353Y-71379263D01*
X181892370Y-71393061D01*
X181901832Y-71423204D01*
X181916167Y-71467935D01*
X181934804Y-71525492D01*
X181957171Y-71594116D01*
X181982697Y-71672048D01*
X182010812Y-71757527D01*
X182040942Y-71848793D01*
X182048504Y-71871649D01*
X182078338Y-71961678D01*
X182106183Y-72045476D01*
X182131448Y-72121283D01*
X182153545Y-72187337D01*
X182171883Y-72241879D01*
X182185872Y-72283147D01*
X182194921Y-72309381D01*
X182198442Y-72318821D01*
X182204504Y-72317487D01*
X182226829Y-72310829D01*
X182263165Y-72299364D01*
X182310983Y-72283902D01*
X182367755Y-72265254D01*
X182430954Y-72244231D01*
X182660670Y-72167369D01*
X182695308Y-72063264D01*
X182940243Y-72063264D01*
X182943926Y-72063017D01*
X182963001Y-72058009D01*
X182995522Y-72047952D01*
X183038584Y-72033869D01*
X183089277Y-72016779D01*
X183144695Y-71997705D01*
X183201932Y-71977669D01*
X183258079Y-71957691D01*
X183310229Y-71938794D01*
X183355475Y-71921999D01*
X183390911Y-71908327D01*
X183413628Y-71898800D01*
X183417947Y-71896144D01*
X184193596Y-71896144D01*
X184202153Y-71900491D01*
X184226797Y-71910143D01*
X184265194Y-71924259D01*
X184315005Y-71941992D01*
X184373897Y-71962499D01*
X184439532Y-71984936D01*
X184441639Y-71985650D01*
X184507660Y-72007626D01*
X184566509Y-72026491D01*
X184615930Y-72041577D01*
X184653670Y-72052219D01*
X184677473Y-72057751D01*
X184685086Y-72057505D01*
X184683703Y-72053559D01*
X184676765Y-72033089D01*
X184665434Y-71999302D01*
X184650914Y-71955788D01*
X184634404Y-71906134D01*
X184626087Y-71881391D01*
X184610280Y-71836146D01*
X184596798Y-71799853D01*
X184586858Y-71775728D01*
X184581679Y-71766988D01*
X184572056Y-71769462D01*
X184547013Y-71777146D01*
X184510102Y-71788939D01*
X184464707Y-71803714D01*
X184414211Y-71820346D01*
X184361999Y-71837709D01*
X184311455Y-71854677D01*
X184265962Y-71870124D01*
X184228903Y-71882925D01*
X184203664Y-71891954D01*
X184197627Y-71894439D01*
X184193628Y-71896085D01*
X184193596Y-71896144D01*
X183417947Y-71896144D01*
X183420719Y-71894439D01*
X183413330Y-71890315D01*
X183389603Y-71880580D01*
X183353710Y-71867528D01*
X183309055Y-71852237D01*
X183259040Y-71835783D01*
X183207071Y-71819245D01*
X183156551Y-71803699D01*
X183110884Y-71790223D01*
X183073472Y-71779894D01*
X183047721Y-71773790D01*
X183037034Y-71772988D01*
X183035005Y-71776526D01*
X183026920Y-71796023D01*
X183014710Y-71828987D01*
X182999641Y-71871939D01*
X182982981Y-71921402D01*
X182974646Y-71946839D01*
X182960115Y-71992339D01*
X182948885Y-72029077D01*
X182941934Y-72053803D01*
X182940243Y-72063264D01*
X182695308Y-72063264D01*
X182739982Y-71928996D01*
X182819293Y-71690624D01*
X182395664Y-71547205D01*
X183107134Y-71547205D01*
X183107187Y-71547237D01*
X183117599Y-71550980D01*
X183144388Y-71560145D01*
X183185489Y-71574038D01*
X183238836Y-71591965D01*
X183302365Y-71613232D01*
X183374008Y-71637145D01*
X183451702Y-71663009D01*
X183453031Y-71663450D01*
X183531454Y-71689328D01*
X183535442Y-71690624D01*
X183604547Y-71713081D01*
X183670114Y-71734025D01*
X183725957Y-71751471D01*
X183769877Y-71764735D01*
X183799679Y-71773128D01*
X183813164Y-71775964D01*
X183818601Y-71774779D01*
X183840836Y-71768339D01*
X183877379Y-71757038D01*
X183925701Y-71741711D01*
X183983270Y-71723192D01*
X184047554Y-71702316D01*
X184071838Y-71694371D01*
X184806163Y-71694371D01*
X184807365Y-71700986D01*
X184813867Y-71723905D01*
X184825170Y-71760776D01*
X184840484Y-71809083D01*
X184859023Y-71866312D01*
X184879997Y-71929947D01*
X184922379Y-72057505D01*
X184957290Y-72162577D01*
X185176534Y-72237577D01*
X185215784Y-72250935D01*
X185275042Y-72270826D01*
X185326909Y-72287903D01*
X185368617Y-72301270D01*
X185397398Y-72310030D01*
X185410486Y-72313288D01*
X185411734Y-72312463D01*
X185419419Y-72298452D01*
X185432111Y-72268752D01*
X185449081Y-72225492D01*
X185469601Y-72170800D01*
X185492940Y-72106805D01*
X185518369Y-72035635D01*
X185545160Y-71959419D01*
X185572582Y-71880285D01*
X185599908Y-71800362D01*
X185626406Y-71721779D01*
X185651349Y-71646664D01*
X185674007Y-71577146D01*
X185693650Y-71515353D01*
X185709550Y-71463414D01*
X185720977Y-71423457D01*
X185727201Y-71397611D01*
X185727494Y-71388005D01*
X185727461Y-71387998D01*
X185716679Y-71390707D01*
X185689604Y-71398942D01*
X185648410Y-71411983D01*
X185595270Y-71429105D01*
X185532357Y-71449588D01*
X185461844Y-71472707D01*
X185385905Y-71497740D01*
X185306712Y-71523965D01*
X185240330Y-71546039D01*
X185226440Y-71550658D01*
X185147260Y-71577098D01*
X185071347Y-71602562D01*
X185000874Y-71626326D01*
X184938013Y-71647669D01*
X184884939Y-71665868D01*
X184843823Y-71680199D01*
X184816841Y-71689941D01*
X184806163Y-71694371D01*
X184071838Y-71694371D01*
X184116021Y-71679916D01*
X184186142Y-71656829D01*
X184255383Y-71633887D01*
X184321214Y-71611926D01*
X184381104Y-71591781D01*
X184432520Y-71574285D01*
X184472932Y-71560273D01*
X184499809Y-71550579D01*
X184510619Y-71546039D01*
X184509361Y-71541057D01*
X184502590Y-71519212D01*
X184490413Y-71481311D01*
X184473307Y-71428785D01*
X184451750Y-71363068D01*
X184426221Y-71285591D01*
X184397198Y-71197787D01*
X184365159Y-71101088D01*
X184330583Y-70996926D01*
X184293949Y-70886734D01*
X184255733Y-70771944D01*
X184216415Y-70653988D01*
X184176473Y-70534299D01*
X184136386Y-70414309D01*
X184096631Y-70295449D01*
X184057687Y-70179153D01*
X184020033Y-70066853D01*
X183984146Y-69959981D01*
X183950504Y-69859969D01*
X183919588Y-69768250D01*
X183891873Y-69686256D01*
X183867840Y-69615419D01*
X183847966Y-69557171D01*
X183832729Y-69512945D01*
X183822608Y-69484174D01*
X183818082Y-69472288D01*
X183817797Y-69471802D01*
X183810944Y-69473819D01*
X183800259Y-69493843D01*
X183786269Y-69530904D01*
X183784908Y-69534887D01*
X183758906Y-69611114D01*
X183729319Y-69698077D01*
X183696617Y-69794381D01*
X183661268Y-69898635D01*
X183623742Y-70009446D01*
X183584508Y-70125422D01*
X183544035Y-70245170D01*
X183502791Y-70367298D01*
X183461245Y-70490414D01*
X183419868Y-70613124D01*
X183379127Y-70734037D01*
X183339492Y-70851760D01*
X183301431Y-70964901D01*
X183265414Y-71072066D01*
X183231910Y-71171865D01*
X183201388Y-71262904D01*
X183174316Y-71343790D01*
X183151164Y-71413132D01*
X183132401Y-71469537D01*
X183118495Y-71511612D01*
X183109916Y-71537966D01*
X183107134Y-71547205D01*
X182395664Y-71547205D01*
X182354793Y-71533368D01*
X182333485Y-71526157D01*
X182243845Y-71495898D01*
X182160401Y-71467847D01*
X182084910Y-71442588D01*
X182019130Y-71420703D01*
X181964818Y-71402776D01*
X181923732Y-71389391D01*
X181897628Y-71381129D01*
X181888266Y-71378575D01*
X181643739Y-71378575D01*
X181618117Y-71301570D01*
X181591512Y-71221271D01*
X181568760Y-71152225D01*
X181550340Y-71095884D01*
X181536733Y-71053700D01*
X181528418Y-71027124D01*
X181525875Y-71017607D01*
X181534292Y-71019845D01*
X181559832Y-71027890D01*
X181601044Y-71041301D01*
X181656472Y-71059591D01*
X181724662Y-71082276D01*
X181804159Y-71108869D01*
X181893506Y-71138885D01*
X181991250Y-71171838D01*
X182095934Y-71207243D01*
X182206104Y-71244614D01*
X182309382Y-71279581D01*
X182414634Y-71314964D01*
X182513120Y-71347816D01*
X182603377Y-71377661D01*
X182683939Y-71404023D01*
X182753343Y-71426426D01*
X182810124Y-71444393D01*
X182852816Y-71457450D01*
X182879957Y-71465119D01*
X182890080Y-71466925D01*
X182892636Y-71460231D01*
X182901055Y-71436218D01*
X182914900Y-71395976D01*
X182933747Y-71340770D01*
X182957172Y-71271862D01*
X182984748Y-71190516D01*
X183016053Y-71097997D01*
X183050660Y-70995568D01*
X183088146Y-70884493D01*
X183128085Y-70766035D01*
X183170053Y-70641459D01*
X183213624Y-70512029D01*
X183258375Y-70379007D01*
X183303880Y-70243658D01*
X183349715Y-70107246D01*
X183395455Y-69971035D01*
X183440675Y-69836288D01*
X183484951Y-69704269D01*
X183527857Y-69576241D01*
X183568970Y-69453470D01*
X183607863Y-69337218D01*
X183644113Y-69228749D01*
X183677295Y-69129327D01*
X183706984Y-69040216D01*
X183732755Y-68962679D01*
X183754184Y-68897981D01*
X183770845Y-68847386D01*
X183782314Y-68812156D01*
X183810480Y-68724659D01*
X183903088Y-68997771D01*
X183907071Y-69009532D01*
X183924245Y-69060417D01*
X183946925Y-69127826D01*
X183974595Y-69210209D01*
X184006734Y-69306017D01*
X184042825Y-69413702D01*
X184082348Y-69531715D01*
X184124785Y-69658506D01*
X184169618Y-69792526D01*
X184216327Y-69932227D01*
X184264394Y-70076060D01*
X184313301Y-70222474D01*
X184362528Y-70369923D01*
X184393255Y-70461963D01*
X184439319Y-70599869D01*
X184483424Y-70731827D01*
X184525187Y-70856692D01*
X184564224Y-70973321D01*
X184600152Y-71080569D01*
X184632587Y-71177292D01*
X184661144Y-71262345D01*
X184685440Y-71334584D01*
X184705092Y-71392865D01*
X184719715Y-71436043D01*
X184728926Y-71462975D01*
X184732341Y-71472515D01*
X184734402Y-71472067D01*
X184751577Y-71466811D01*
X184784687Y-71456173D01*
X184831960Y-71440745D01*
X184891625Y-71421118D01*
X184961913Y-71397886D01*
X185041050Y-71371641D01*
X185127268Y-71342975D01*
X185218794Y-71312480D01*
X185313859Y-71280749D01*
X185410690Y-71248374D01*
X185507518Y-71215948D01*
X185602570Y-71184063D01*
X185694077Y-71153311D01*
X185780268Y-71124284D01*
X185859370Y-71097576D01*
X185929614Y-71073778D01*
X185989229Y-71053482D01*
X186036444Y-71037281D01*
X186069487Y-71025768D01*
X186086588Y-71019535D01*
X186092352Y-71019214D01*
X186094173Y-71026722D01*
X186090653Y-71044956D01*
X186081283Y-71076438D01*
X186065553Y-71123690D01*
X186040947Y-71195945D01*
X185990701Y-71343882D01*
X185975770Y-71388005D01*
X185942470Y-71486409D01*
G37*
D11*
%TO.C,J4*%
X144390000Y-50530000D02*
X144390000Y-47870000D01*
X164830000Y-47870000D02*
X144390000Y-47870000D01*
X164830000Y-50530000D02*
X144390000Y-50530000D01*
X164830000Y-50530000D02*
X164830000Y-47870000D01*
%TO.C,J5*%
X172330000Y-96130000D02*
X173660000Y-96130000D01*
X172330000Y-98790000D02*
X172330000Y-96130000D01*
X192770000Y-96130000D02*
X173660000Y-96130000D01*
X192770000Y-98790000D02*
X172330000Y-98790000D01*
X192770000Y-98790000D02*
X192770000Y-96130000D01*
%TO.C,J1*%
X126610000Y-98790000D02*
X126610000Y-96130000D01*
X147050000Y-96130000D02*
X126610000Y-96130000D01*
X147050000Y-98790000D02*
X126610000Y-98790000D01*
X147050000Y-98790000D02*
X147050000Y-96130000D01*
%TO.C,J3*%
X149470000Y-98790000D02*
X149470000Y-96130000D01*
X169910000Y-96130000D02*
X149470000Y-96130000D01*
X169910000Y-98790000D02*
X149470000Y-98790000D01*
X169910000Y-98790000D02*
X169910000Y-96130000D01*
%TO.C,J2*%
X117466000Y-50530000D02*
X117466000Y-47870000D01*
X142986000Y-47870000D02*
X117466000Y-47870000D01*
X142986000Y-50530000D02*
X117466000Y-50530000D01*
X142986000Y-50530000D02*
X142986000Y-47870000D01*
%TO.C,J6*%
X167250000Y-50530000D02*
X167250000Y-47870000D01*
X187690000Y-47870000D02*
X167250000Y-47870000D01*
X187690000Y-50530000D02*
X167250000Y-50530000D01*
X187690000Y-50530000D02*
X187690000Y-47870000D01*
%TO.C,J7*%
X192650000Y-47870000D02*
X192650000Y-93710000D01*
X197850000Y-47870000D02*
X192650000Y-47870000D01*
X197850000Y-47870000D02*
X197850000Y-93710000D01*
X197850000Y-93710000D02*
X192650000Y-93710000D01*
%TO.C,J8*%
X162170000Y-68190000D02*
X167370000Y-68190000D01*
X162170000Y-75930000D02*
X162170000Y-68190000D01*
X162170000Y-75930000D02*
X167370000Y-75930000D01*
X167370000Y-75930000D02*
X167370000Y-68190000D01*
%TD*%
M02*
